Coordinates
version=1
nRows=12
nColumns=34
inDegrees=yes

Units are S.I. units (second, meters, Newtons, ...)
If the header above contains a line with 'inDegrees', this indicates whether rotational values are in degrees (yes) or radians (no).

endheader
time	pelvis_tilt	pelvis_list	pelvis_rotation	pelvis_tx	pelvis_ty	pelvis_tz	hip_flexion_r	hip_adduction_r	hip_rotation_r	knee_angle_r	ankle_angle_r	subtalar_angle_r	mtp_angle_r	hip_flexion_l	hip_adduction_l	hip_rotation_l	knee_angle_l	ankle_angle_l	subtalar_angle_l	mtp_angle_l	lumbar_extension	lumbar_bending	lumbar_rotation	arm_flex_r	arm_add_r	arm_rot_r	elbow_flex_r	pro_sup_r	arm_flex_l	arm_add_l	arm_rot_l	elbow_flex_l	pro_sup_l
      2.46666670	     -8.16248247	      0.17600305	      4.82680650	      0.28713157	      0.96464163	     -0.04530575	      9.40392640	     -0.92992779	     -3.08428518	      3.92867144	      5.05551057	     -2.61465152	      0.00000000	     11.10590101	     -2.28448998	      4.06316021	      7.77725045	      3.89458429	      0.58078907	      0.00000000	      0.35023468	      0.37783399	      1.49277682	     60.37567728	      1.97696237	     68.71758878	    126.91503378	     85.42968953	     76.73829893	      7.33231824	     74.89786770	    115.54447206	     66.91011195
      2.48333330	     -7.95329909	      0.14131827	      4.78232047	      0.28926532	      0.96278352	     -0.04598751	      8.73987228	     -0.83097607	     -2.97650915	      3.29248413	      4.91908400	     -2.59411725	      0.00000000	     10.54985981	     -2.34117439	      4.19312638	      7.37897006	      3.93958340	      0.50598749	      0.00000000	      0.58103300	      0.38697385	      1.54419313	     59.99175704	      2.14008618	     69.08308354	    127.13260396	     85.66331661	     76.18948196	      7.42971748	     74.96304216	    115.12780508	     66.86996203
      2.50000000	     -7.87429465	      0.09176505	      4.70437862	      0.29309851	      0.95891455	     -0.04525788	      8.26056681	     -0.69835281	     -2.93944428	      2.84992213	      5.07372494	     -2.66720749	      0.00000000	     10.08593434	     -2.45240184	      4.22450216	      6.97917238	      4.11916603	      0.41638452	      0.00000000	      1.10271936	      0.30589229	      1.47307191	     59.88068525	      2.29786888	     69.23817852	    127.28281307	     85.74994150	     76.00471773	      7.65748045	     74.90010291	    115.04518000	     66.85290655
      2.51666670	     -7.28134583	      0.10712626	      4.63116234	      0.29509069	      0.96005030	     -0.04611571	      7.06566095	     -0.63373097	     -2.70861007	      2.19989222	      4.93473117	     -2.65913450	      0.00000000	      8.92208965	     -2.49436760	      4.44624752	      6.33154397	      4.15605466	      0.29818019	      0.00000000	      1.27246195	      0.34119240	      1.86951257	     59.23419152	      1.98996779	     69.44793578	    127.89653213	     86.25398385	     74.68128602	      7.94010869	     74.07301826	    115.02859722	     66.73707958
      2.53333330	     -7.08357468	      0.10566886	      4.62178243	      0.29927428	      0.96163099	     -0.04612261	      6.29274612	     -0.58273795	     -2.44078607	      1.54978886	      5.03148250	     -2.62541282	      0.00000000	      8.17331953	     -2.54031579	      4.68769455	      5.75206199	      4.33404168	      0.26157703	      0.00000000	      1.74858470	      0.33993023	      2.09016225	     58.52725003	      2.07389483	     69.69962841	    127.77687618	     86.45171871	     73.81477452	      7.99217586	     74.20200549	    114.85128617	     66.69470301
      2.55000000	     -6.72653688	      0.14173410	      4.61533290	      0.30322851	      0.96325922	     -0.04618989	      5.20808061	     -0.54380830	     -2.38862022	      0.68169132	      4.77560448	     -2.58175052	      0.00000000	      7.13696602	     -2.56804346	      4.72090455	      5.01564733	      4.11708829	      0.21865407	      0.00000000	      2.03541777	      0.35067002	      2.40029608	     57.53890540	      1.94279364	     69.86954436	    127.76257700	     86.88132630	     72.44998748	      7.96051080	     73.77794401	    114.34159561	     66.55832097
      2.56666670	     -6.55160930	      0.14192481	      4.64930937	      0.30502739	      0.95951557	     -0.04618648	      4.46485975	     -0.51563958	     -2.15091077	      0.08564803	      4.93416968	     -2.57163826	      0.00000000	      6.42619748	     -2.58635612	      4.97041552	      4.48425952	      4.39486329	      0.16115276	      0.00000000	      2.42624360	      0.40149911	      2.81122844	     57.00086243	      1.90901800	     69.87831532	    127.43578962	     87.05063156	     71.54720554	      8.15080440	     73.82527363	    114.34208439	     66.50941634
      2.58333330	     -6.27244830	      0.18383148	      4.42785658	      0.30699155	      0.96085306	     -0.04698146	      3.93174746	     -0.53783333	     -1.96876590	      0.00000000	      5.07927519	     -2.50544714	      0.00000000	      5.54252315	     -2.57464513	      4.86657030	      3.73984679	      4.27343090	      0.08703602	      0.00000000	      2.56968788	      0.50122008	      3.31939403	     56.40590806	      1.64861366	     68.94414349	    126.64677432	     87.37250282	     70.65901839	      8.31258638	     73.25106209	    114.04963319	     66.34467948
      2.60000000	     -6.18800755	      0.19723444	      4.30873266	      0.30902695	      0.95908922	     -0.04699626	      3.66468142	     -0.56966408	     -1.91758787	      0.00000000	      5.20144177	     -2.54606506	      0.00000000	      4.96544051	     -2.52748099	      5.03020037	      3.11860520	      4.58494734	      0.04423380	      0.00000000	      2.91447323	      0.48726880	      3.47326832	     55.90509778	      1.66408048	     68.82269551	    126.57730198	     87.44687020	     69.96123395	      8.35611667	     73.38668993	    114.18084370	     66.32021682
      2.61666670	     -6.01800463	      0.25301798	      4.07294106	      0.31001982	      0.96055671	     -0.04757321	      3.37029992	     -0.60699737	     -1.61865134	      0.00000000	      5.40835434	     -2.43447256	      0.00000000	      4.29625238	     -2.47375300	      4.88348846	      2.44750154	      4.31551603	      0.06829381	      0.00000000	      3.14472013	      0.56122734	      3.70889803	     54.80421277	      1.62229157	     67.82534765	    125.47774513	     87.69491674	     69.13297036	      8.22994946	     72.95842702	    113.76195307	     66.13894154
      2.63333330	     -6.02304368	      0.22650520	      4.08046619	      0.31198629	      0.95767035	     -0.04768535	      3.25901387	     -0.59096425	     -1.51633990	      0.00000000	      5.41238876	     -2.41178580	      0.00000000	      3.93040525	     -2.45799233	      4.97560263	      1.95156059	      4.54197058	      0.03439456	      0.00000000	      3.35816305	      0.56842040	      3.58687048	     54.53540261	      1.40236532	     67.61168129	    125.17762530	     87.73663719	     68.97280734	      8.34655666	     72.95128669	    113.86723221	     66.11412012
      2.65000000	     -5.75595788	      0.25313938	      3.95053863	      0.31538826	      0.95543030	     -0.04652863	      2.79863946	     -0.55485558	     -1.24111000	      0.00000000	      5.56546402	     -2.38413810	      0.00000000	      3.24657659	     -2.47697004	      5.14858691	      1.49843913	      4.46611393	      0.13937339	      0.00000000	      3.50549081	      0.69202919	      3.99144121	     53.68529127	      1.47824722	     66.45513135	    124.18271725	     87.84698439	     68.34235393	      8.32621977	     72.84056093	    113.93783192	     66.01822727
